<?xml version="1.0" standalone="no"?>
<!DOCTYPE svg PUBLIC "-//W3C//DTD SVG 20010904//EN"
 "http://www.w3.org/TR/2001/REC-SVG-20010904/DTD/svg10.dtd">
<svg version="1.0" xmlns="http://www.w3.org/2000/svg"
 width="260.000000pt" height="260.000000pt" viewBox="0 0 260.000000 260.000000"
 preserveAspectRatio="xMidYMid meet">
<metadata>
Created by potrace 1.11, written by Peter Selinger 2001-2013
</metadata>
<g transform="translate(0.000000,260.000000) scale(0.100000,-0.100000)"
fill="#000000" stroke="none">
<path d="M1106 2344 c-210 -41 -380 -131 -538 -282 -230 -221 -340 -498 -325
-816 12 -266 114 -493 306 -687 145 -146 291 -232 488 -286 88 -25 114 -28
263 -28 149 0 174 3 264 28 407 113 704 432 781 840 19 102 19 272 0 374 -83
438 -420 775 -858 858 -97 18 -287 18 -381 -1z m762 -279 c72 -34 175 -137
209 -211 24 -53 25 -61 15 -130 -6 -45 -18 -84 -31 -103 -50 -70 -175 -92
-288 -49 -78 29 -182 131 -206 202 -47 139 11 272 133 301 80 19 109 18 168
-10z m-1038 -600 c135 -36 284 -137 456 -309 124 -123 190 -223 225 -339 29
-93 24 -251 -9 -314 -31 -60 -86 -111 -151 -142 -48 -22 -69 -26 -146 -25
-256 2 -522 162 -679 409 -78 124 -108 186 -136 288 -50 179 -3 330 121 392
104 53 217 67 319 40z"/>
</g>
</svg>
