<?xml version="1.0" standalone="no"?>
<!DOCTYPE svg PUBLIC "-//W3C//DTD SVG 20010904//EN"
 "http://www.w3.org/TR/2001/REC-SVG-20010904/DTD/svg10.dtd">
<svg version="1.0" xmlns="http://www.w3.org/2000/svg"
 width="260.000000pt" height="260.000000pt" viewBox="0 0 260.000000 260.000000"
 preserveAspectRatio="xMidYMid meet">
<metadata>
Created by potrace 1.11, written by Peter Selinger 2001-2013
</metadata>
<g transform="translate(0.000000,260.000000) scale(0.100000,-0.100000)"
fill="#000000" stroke="none">
<path d="M1272 2362 c-9 -16 -34 -43 -55 -62 -51 -45 -76 -91 -137 -257 -69
-188 -166 -384 -310 -628 -168 -284 -209 -397 -210 -576 0 -323 227 -606 554
-689 108 -27 265 -27 372 0 220 56 391 192 484 385 50 105 70 191 70 304 0
176 -43 299 -205 576 -132 227 -221 409 -289 590 -84 223 -85 224 -167 308
-42 42 -79 77 -83 77 -3 0 -14 -13 -24 -28z m372 -1001 c107 -187 126 -233
126 -297 0 -54 -25 -74 -93 -74 -108 0 -185 63 -200 165 -10 65 43 392 62 380
5 -2 52 -81 105 -174z m-557 -240 c13 -19 35 -67 50 -108 58 -154 126 -213
314 -274 106 -34 138 -49 169 -78 119 -113 32 -296 -169 -355 -69 -20 -217
-21 -291 -1 -157 42 -302 160 -355 290 -69 172 -28 400 95 523 71 71 141 72
187 3z"/>
</g>
</svg>
